<?xml version="1.0" encoding="UTF-8"?>
<svg id="Layer_2" xmlns="http://www.w3.org/2000/svg" viewBox="0 0 3978.57 901.91">
  <defs>
    <style>
      .cls-1 {
        fill: #fff;
      }
    </style>
  </defs>
  <g id="Layer_1-2" data-name="Layer_1">
    <g>
      <path class="cls-1" d="M3792.76,0h-333.3c-102.62,0-185.82,83.19-185.82,185.82v217.25c0,102.62,83.19,185.82,185.82,185.82h333.3c102.62,0,185.82-83.19,185.82-185.82v-217.25h0c0-102.62-83.19-185.82-185.82-185.82ZM3792.76,387.33c0,24.03-19.48,43.52-43.52,43.52h-246.26c-24.03,0-43.52-19.48-43.52-43.52v-185.78c0-24.03,19.48-43.52,43.52-43.52h246.26c24.03,0,43.52,19.48,43.52,43.52v185.78Z"/>
      <path class="cls-1" d="M.04,184.39h-.04v404.49h185.82v-215.18h515.38v-158.04H185.82v-57.63h515.38V0H185.82C83.67,0,.81,82.43.04,184.39Z"/>
      <path class="cls-1" d="M815.45,185.82v217.25c0,102.62,83.19,185.82,185.82,185.82h519.11v-158.04h-519.11v-57.15h519.11v-158.04h-519.11v-57.63h519.11V0h-519.11c-102.62,0-185.82,83.19-185.82,185.82Z"/>
      <path class="cls-1" d="M2453.81,185.82h0v217.25c0,102.62,83.19,185.82,185.82,185.82h519.51v-158.03h-519.51V158.04h519.51V0h-519.51c-102.62,0-185.82,83.19-185.82,185.82Z"/>
      <path class="cls-1" d="M1820.45,588.88h519.11v-158.04h-478.53V0h-40.58c-102.62,0-185.82,83.19-185.82,185.82v217.25c0,102.62,83.19,185.82,185.82,185.82Z"/>
    </g>
    <g>
      <polygon class="cls-1" points="1272 733.78 1224.59 834.91 1177.17 733.78 1085.83 733.78 1085.83 898.87 1136.75 898.87 1136.75 776.07 1140.42 776.07 1203.76 898.87 1245.41 898.87 1304.12 776.52 1307.85 776.52 1307.85 898.87 1358.71 898.87 1358.71 733.78 1272 733.78"/>
      <path class="cls-1" d="M1680.35,816.6c0,40.24-4.86,64.29-14.57,72.16-10.46,8.47-42.06,12.7-94.8,12.7-38.54,0-63.84-1.39-75.88-4.18-15.09-3.54-24.64-11.24-28.63-23.09-3.09-9.11-4.63-28.31-4.63-57.59,0-40.24,4.78-64.29,14.34-72.16,10.46-8.66,42.06-12.99,94.8-12.99s84.11,4.25,94.57,12.76c9.86,8.02,14.79,32.15,14.79,72.38ZM1512.72,816.6c0,21.12,2.46,33.37,7.4,36.76,4.78,3.54,21.74,5.31,50.87,5.31s46.39-1.77,51.32-5.31c4.78-3.39,7.17-15.64,7.17-36.76s-2.39-33.73-7.17-37.26c-4.78-3.39-21.81-5.08-51.1-5.08s-46.32,1.69-51.1,5.08c-4.93,3.54-7.4,15.96-7.4,37.26Z"/>
      <path class="cls-1" d="M1777.73,776.57v-42.8h196.82v42.8h-72.83v122.28h-50.87v-122.28h-73.12Z"/>
      <path class="cls-1" d="M2294.17,816.6c0,40.24-4.86,64.29-14.57,72.16-10.46,8.47-42.06,12.7-94.8,12.7-38.54,0-63.84-1.39-75.88-4.18-15.09-3.54-24.64-11.24-28.63-23.09-3.09-9.11-4.63-28.31-4.63-57.59,0-40.24,4.78-64.29,14.34-72.16,10.46-8.66,42.06-12.99,94.8-12.99s84.11,4.25,94.57,12.76c9.86,8.02,14.79,32.15,14.79,72.38ZM2126.53,816.6c0,21.12,2.46,33.37,7.4,36.76,4.78,3.54,21.74,5.31,50.87,5.31s46.39-1.77,51.32-5.31c4.78-3.39,7.17-15.64,7.17-36.76s-2.39-33.73-7.17-37.26c-4.78-3.39-21.81-5.08-51.1-5.08s-46.32,1.69-51.1,5.08c-4.93,3.54-7.4,15.96-7.4,37.26Z"/>
      <path class="cls-1" d="M2389.52,733.77h147.98c18.18,0,31.05,3.31,38.62,9.94,8.17,7.26,12.25,19.99,12.25,38.17,0,14.04-1.69,24.52-5.08,31.45-3.54,6.96-9.47,12.06-17.79,15.3,9.22,3.99,15.38,8.07,18.46,12.25,2.94,4.14,4.4,11.24,4.4,21.29v36.68h-50.87v-29.29c0-4.33-1.24-8.04-3.73-11.12-2.9-3.69-7.21-5.53-12.93-5.53h-80.46v45.94h-50.87v-165.07ZM2440.39,776.57v33.54h81.59c5.57,0,9.58-1.22,12.03-3.67,2.33-2.33,3.5-6.66,3.5-12.99s-1.24-10.71-3.73-13.16c-2.45-2.48-6.38-3.73-11.8-3.73h-81.59Z"/>
      <path class="cls-1" d="M2793.48,861.88c24.54,0,38.73-.39,42.57-1.18,3.88-.75,5.82-3.75,5.82-9.01,0-6.31-2.71-10.31-8.13-12-5.38-1.54-18.8-2.31-40.26-2.31-42.38,0-69.13-3.07-80.23-9.2-11.1-6.17-16.66-21.44-16.66-45.79,0-22.51,7.25-36.93,21.74-43.25,11.1-4.78,35.78-7.17,74.02-7.17,34.06,0,55.65.92,64.76,2.77,21.42,4.29,32.13,22.48,32.13,54.55h-50.87c0-8.75-1.92-13.89-5.76-15.43-3.88-1.39-17.22-2.08-40.03-2.08s-36.21.39-39.75,1.18c-3.58.9-5.36,4.06-5.36,9.46s3.01,9.35,9.03,11.04c6.02,1.69,18.35,2.53,36.98,2.53,41.97,0,69.03,3.31,81.19,9.94,12.04,6.63,18.07,21.89,18.07,45.79,0,22.06-6.79,36.17-20.38,42.35-11.71,5.23-38.07,7.85-79.1,7.85-31.58,0-52.08-.7-61.49-2.09-14.49-2.15-24.35-7.23-29.59-15.25-5.27-7.87-7.9-21.59-7.9-41.17h50.87c0,9.24,2,14.63,6.01,16.17,4.01,1.54,18.11,2.31,42.32,2.31Z"/>
    </g>
  </g>
</svg>