<?xml version="1.0" encoding="UTF-8"?>
<svg id="Layer_2" xmlns="http://www.w3.org/2000/svg" viewBox="0 0 5180.14 1046.67">
  <defs>
    <style>
      .cls-1 {
        fill: #231f20;
      }

      .cls-2 {
        fill: #f06425;
      }

      .cls-3 {
        fill: #0a8268;
      }

      .cls-4 {
        fill: #010101;
      }
    </style>
  </defs>
  <g id="Layer_1-2" data-name="Layer_1">
    <g>
      <g>
        <path class="cls-4" d="M5102.73,166.81c-42.69,0-77.41-34.73-77.41-77.42s34.73-77.42,77.41-77.42,77.41,34.73,77.41,77.42-34.73,77.42-77.41,77.42ZM5102.73,24.49c-35.79,0-64.91,29.12-64.91,64.91s29.12,64.91,64.91,64.91,64.91-29.12,64.91-64.91-29.12-64.91-64.91-64.91Z"/>
        <path class="cls-1" d="M5071.56,47.13h36.72c20.02,0,29.17,9.84,29.17,24.25,0,8.24-4.69,15.21-12.81,19.79,6.75,2.97,9.61,8.24,10.75,14.98l3.43,23.33h-15.79l-2.75-19.79c-1.26-8.92-5.49-12.81-13.95-12.81h-19.45v32.6h-15.33V47.13ZM5106.34,84.54c10.29,0,15.21-4.35,15.21-12.24s-4.92-12.35-15.21-12.35h-19.45v24.59h19.45Z"/>
      </g>
      <g>
        <path class="cls-4" d="M0,378.86v199.6c0,43.38,17.23,84.98,47.91,115.66l108.4,108.4c73.8,73.8,193.5,73.84,267.35,0L0,378.86Z"/>
        <path class="cls-4" d="M722.07,75.86c-73.8-73.8-193.54-73.8-267.35,0l423.65,423.65v-199.6c0-43.38-17.23-84.98-47.91-115.66l-108.4-108.4Z"/>
        <path class="cls-2" d="M499.46,0h-199.6c-43.38,0-84.98,17.23-115.66,47.91l-108.35,108.35C2.01,230.1,2.06,349.8,75.86,423.61L499.46,0Z"/>
        <path class="cls-3" d="M378.86,878.41h199.6c43.38,0,84.98-17.23,115.66-47.91l108.4-108.4c73.8-73.8,73.8-193.55,0-267.35l-423.65,423.65Z"/>
      </g>
      <g>
        <path class="cls-4" d="M4861.54,144.77h-333.3c-102.62,0-185.82,83.19-185.82,185.82v217.25c0,102.62,83.19,185.82,185.82,185.82h333.3c102.62,0,185.82-83.19,185.82-185.82v-217.25h0c0-102.62-83.19-185.82-185.82-185.82ZM4861.54,532.1c0,24.03-19.48,43.52-43.52,43.52h-246.26c-24.03,0-43.52-19.48-43.52-43.52v-185.78c0-24.03,19.48-43.52,43.52-43.52h246.26c24.03,0,43.52,19.48,43.52,43.52v185.78Z"/>
        <path class="cls-4" d="M1068.82,329.15h-.04v404.49h185.82v-215.18h515.38v-158.04h-515.38v-57.63h515.38v-158.04h-515.38c-102.14,0-185.01,82.43-185.78,184.39Z"/>
        <path class="cls-4" d="M1884.24,330.58v217.25c0,102.62,83.19,185.82,185.82,185.82h519.11v-158.04h-519.11v-57.15h519.11v-158.04h-519.11v-57.63h519.11v-158.04h-519.11c-102.62,0-185.82,83.19-185.82,185.82Z"/>
        <path class="cls-4" d="M3522.6,330.58h0v217.25c0,102.62,83.19,185.82,185.82,185.82h519.51v-158.03h-519.51v-272.81h519.51v-158.04h-519.51c-102.62,0-185.82,83.19-185.82,185.82Z"/>
        <path class="cls-4" d="M2889.24,733.65h519.11v-158.04h-478.53V144.77h-40.58c-102.62,0-185.82,83.19-185.82,185.82v217.25c0,102.62,83.19,185.82,185.82,185.82Z"/>
      </g>
      <g>
        <polygon class="cls-4" points="2340.79 878.54 2293.37 979.68 2245.96 878.54 2154.62 878.54 2154.62 1043.63 2205.54 1043.63 2205.54 920.83 2209.21 920.83 2272.54 1043.63 2314.2 1043.63 2372.91 921.28 2376.63 921.28 2376.63 1043.63 2427.5 1043.63 2427.5 878.54 2340.79 878.54"/>
        <path class="cls-4" d="M2749.14,961.36c0,40.24-4.86,64.29-14.57,72.16-10.46,8.47-42.06,12.7-94.8,12.7-38.54,0-63.84-1.39-75.88-4.18-15.09-3.54-24.64-11.24-28.63-23.09-3.09-9.11-4.63-28.31-4.63-57.59,0-40.24,4.78-64.29,14.34-72.16,10.46-8.66,42.06-12.99,94.8-12.99s84.11,4.25,94.57,12.76c9.86,8.02,14.79,32.15,14.79,72.38ZM2581.51,961.36c0,21.12,2.46,33.37,7.4,36.76,4.78,3.54,21.74,5.31,50.87,5.31s46.39-1.77,51.32-5.31c4.78-3.39,7.17-15.64,7.17-36.76s-2.39-33.73-7.17-37.26c-4.78-3.39-21.81-5.08-51.1-5.08s-46.32,1.69-51.1,5.08c-4.93,3.54-7.4,15.96-7.4,37.26Z"/>
        <path class="cls-4" d="M2846.52,921.33v-42.8h196.82v42.8h-72.83v122.28h-50.87v-122.28h-73.12Z"/>
        <path class="cls-4" d="M3362.95,961.36c0,40.24-4.86,64.29-14.57,72.16-10.46,8.47-42.06,12.7-94.8,12.7-38.54,0-63.84-1.39-75.88-4.18-15.09-3.54-24.64-11.24-28.63-23.09-3.09-9.11-4.63-28.31-4.63-57.59,0-40.24,4.78-64.29,14.34-72.16,10.46-8.66,42.06-12.99,94.8-12.99s84.11,4.25,94.57,12.76c9.86,8.02,14.79,32.15,14.79,72.38ZM3195.32,961.36c0,21.12,2.46,33.37,7.4,36.76,4.78,3.54,21.74,5.31,50.87,5.31s46.39-1.77,51.32-5.31c4.78-3.39,7.17-15.64,7.17-36.76s-2.39-33.73-7.17-37.26c-4.78-3.39-21.81-5.08-51.1-5.08s-46.32,1.69-51.1,5.08c-4.93,3.54-7.4,15.96-7.4,37.26Z"/>
        <path class="cls-4" d="M3458.3,878.53h147.98c18.18,0,31.05,3.31,38.62,9.94,8.17,7.26,12.25,19.99,12.25,38.17,0,14.04-1.69,24.52-5.08,31.45-3.54,6.96-9.47,12.06-17.79,15.3,9.22,3.99,15.38,8.07,18.46,12.25,2.94,4.14,4.4,11.24,4.4,21.29v36.68h-50.87v-29.29c0-4.33-1.24-8.04-3.73-11.12-2.9-3.69-7.21-5.53-12.93-5.53h-80.46v45.94h-50.87v-165.07ZM3509.17,921.33v33.54h81.59c5.57,0,9.58-1.22,12.03-3.67,2.33-2.33,3.5-6.66,3.5-12.99s-1.24-10.71-3.73-13.16c-2.45-2.48-6.38-3.73-11.8-3.73h-81.59Z"/>
        <path class="cls-4" d="M3862.27,1006.64c24.54,0,38.73-.39,42.57-1.18,3.88-.75,5.82-3.75,5.82-9.01,0-6.31-2.71-10.31-8.13-12-5.38-1.54-18.8-2.31-40.26-2.31-42.38,0-69.13-3.07-80.23-9.2-11.1-6.17-16.66-21.44-16.66-45.79,0-22.51,7.25-36.93,21.74-43.25,11.1-4.78,35.78-7.17,74.02-7.17,34.06,0,55.65.92,64.76,2.77,21.42,4.29,32.13,22.48,32.13,54.55h-50.87c0-8.75-1.92-13.89-5.76-15.43-3.88-1.39-17.22-2.08-40.03-2.08s-36.21.39-39.75,1.18c-3.58.9-5.36,4.06-5.36,9.46s3.01,9.35,9.03,11.04c6.02,1.69,18.35,2.53,36.98,2.53,41.97,0,69.03,3.31,81.19,9.94,12.04,6.63,18.07,21.89,18.07,45.79,0,22.06-6.79,36.17-20.38,42.35-11.71,5.23-38.07,7.85-79.1,7.85-31.58,0-52.08-.7-61.49-2.09-14.49-2.15-24.35-7.23-29.59-15.25-5.27-7.87-7.9-21.59-7.9-41.17h50.87c0,9.24,2,14.63,6.01,16.17,4.01,1.54,18.11,2.31,42.32,2.31Z"/>
      </g>
    </g>
  </g>
</svg>